<svg width="64" height="64" viewBox="0 0 64 64" fill="none" xmlns="http://www.w3.org/2000/svg">
<rect width="64" height="64" rx="6" fill="white"/>
<rect x="12" y="10" width="40" height="39.1111" rx="19.5556" fill="url(#paint0_linear_106_39)"/>
<g filter="url(#filter0_bi_106_39)">
<path d="M46 47.7422V50.6973C46 52.6094 44.6 54 43.0444 54H20.9556C19.2444 54 18 52.4356 18 50.6973V47.7422C18 42.5274 21.7333 38.3556 26.4 38.3556H27.4889C28.8889 39.0509 30.4444 39.3985 32 39.3985C33.5556 39.3985 35.1111 39.0509 36.5111 38.3556H37.6C42.2667 38.3556 46 42.5274 46 47.7422Z" fill="#BCE4F1" fill-opacity="0.5"/>
</g>
<path d="M32 35.4222C35.866 35.4222 39 32.3579 39 28.5778C39 24.7977 35.866 21.7333 32 21.7333C28.134 21.7333 25 24.7977 25 28.5778C25 32.3579 28.134 35.4222 32 35.4222Z" fill="white"/>
<defs>
<filter id="filter0_bi_106_39" x="14" y="34.3556" width="36" height="23.6444" filterUnits="userSpaceOnUse" color-interpolation-filters="sRGB">
<feFlood flood-opacity="0" result="BackgroundImageFix"/>
<feGaussianBlur in="BackgroundImageFix" stdDeviation="2"/>
<feComposite in2="SourceAlpha" operator="in" result="effect1_backgroundBlur_106_39"/>
<feBlend mode="normal" in="SourceGraphic" in2="effect1_backgroundBlur_106_39" result="shape"/>
<feColorMatrix in="SourceAlpha" type="matrix" values="0 0 0 0 0 0 0 0 0 0 0 0 0 0 0 0 0 0 127 0" result="hardAlpha"/>
<feOffset dx="0.2" dy="0.1"/>
<feGaussianBlur stdDeviation="0.5"/>
<feComposite in2="hardAlpha" operator="arithmetic" k2="-1" k3="1"/>
<feColorMatrix type="matrix" values="0 0 0 0 1 0 0 0 0 1 0 0 0 0 1 0 0 0 0.6 0"/>
<feBlend mode="normal" in2="shape" result="effect2_innerShadow_106_39"/>
</filter>
<linearGradient id="paint0_linear_106_39" x1="14.7119" y1="21.9322" x2="50.2904" y2="18.4668" gradientUnits="userSpaceOnUse">
<stop stop-color="#0B5CD6"/>
<stop offset="1" stop-color="#0085FF"/>
</linearGradient>
</defs>
</svg>
