<svg xmlns="http://www.w3.org/2000/svg" width="398" height="396" viewBox="0 0 398 396"><defs><style>.a{fill:none;}.b{fill:#060079;}</style></defs><g transform="translate(854 -6780)"><rect class="a" width="398" height="396" transform="translate(-854 6780)"/><g transform="translate(-824.305 6790.469)"><g transform="translate(0 53.819)"><path class="b" d="M223.517,136.955a52.136,52.136,0,0,0-14.241,10.156c-22.546,22.551-43.041,43.046-43.041,43.046l.009.013c-.122.123-.245.224-.368.351a15.537,15.537,0,0,0-.678,21.26c.214.245.442.487.678.718a15.531,15.531,0,0,0,21.978,0l23.674-23.674a51.463,51.463,0,0,0,11.953,2.806,58.318,58.318,0,0,0,14.564-.255c10.689-1.514,9.57-1.073,15.769-3.111a78.262,78.262,0,0,0,13.136-6.186l4.207,4.2c.464.45,11.189,11.193,16.661,16.656.969.973,1.792,1.774,2.342,2.347a17.1,17.1,0,0,1,1.774,1.774l27.3,27.3c7.869-8.829,16.856-21.978,15.747-37.074l-68.213-68.2S243.156,127.394,223.517,136.955Z" transform="translate(-54.632 -79.268)"/><path class="b" d="M204.732,360.736a15.472,15.472,0,0,0-21.891,0l-4.493,4.493a15.471,15.471,0,0,0-21.9-21.863,15.473,15.473,0,1,0-21.882-21.882,15.472,15.472,0,1,0-21.883-21.878L99.156,313.132a15.473,15.473,0,0,0,21.877,21.887A15.475,15.475,0,0,0,142.919,356.9,15.473,15.473,0,0,0,164.8,378.783l4.5-4.5a15.476,15.476,0,0,0,21.9,21.878l13.536-13.536A15.483,15.483,0,0,0,204.732,360.736Z" transform="translate(-32.044 -135.519)"/><path class="b" d="M446.211,136.131,366.556,56.466a9.048,9.048,0,0,0-12.79,0L328.217,82.014a9.043,9.043,0,0,0,0,12.786l79.665,79.66a9.022,9.022,0,0,0,12.781,0l25.548-25.553A9.014,9.014,0,0,0,446.211,136.131ZM423.506,153.8a9.716,9.716,0,1,1,0-13.741A9.718,9.718,0,0,1,423.506,153.8Z" transform="translate(-110.256 -53.819)"/><path class="b" d="M120.641,85.426,95.1,59.878a9.042,9.042,0,0,0-12.785,0L2.647,139.542a9.032,9.032,0,0,0,0,12.777L28.2,177.876a9.044,9.044,0,0,0,12.781,0l79.664-79.664A9.034,9.034,0,0,0,120.641,85.426ZM39.1,157.208a9.716,9.716,0,1,1,0-13.741A9.726,9.726,0,0,1,39.1,157.208Z" transform="translate(0 -54.975)"/><path class="b" d="M292.7,251.705l-4.939-4.948L239.81,198.8l-3.229,1.432-3.516,1.269-.254.077A119.9,119.9,0,0,1,215,205.161a70.779,70.779,0,0,1-17.793.287,66.315,66.315,0,0,1-6.809-1.119L172.04,222.678a28.338,28.338,0,0,1-40.021,0c-.387-.391-.76-.787-1.105-1.178l-.118-.132a28.333,28.333,0,0,1-5.457-28.081L132.4,182.3l-.013-.013,43.041-43.036a69.2,69.2,0,0,1,5.5-4.912,105.012,105.012,0,0,0-24.666-1.856L88.058,200.7c-.919,12.558,7.705,26.321,13.841,34.358A28.177,28.177,0,0,1,149,249.7,28.094,28.094,0,0,1,170.879,271.6a28.067,28.067,0,0,1,20.326,16.788,28.2,28.2,0,0,1,20.3,48.158l-4.5,4.512,2.256,2.257a15.475,15.475,0,0,0,21.887-21.883l4.5,4.517a15.476,15.476,0,0,0,21.882-21.891,15.473,15.473,0,0,0,21.882-21.883,15.472,15.472,0,1,0,21.883-21.877Z" transform="translate(-29.798 -80.423)"/></g></g></g></svg>