<svg xmlns="http://www.w3.org/2000/svg" width="398" height="396" viewBox="0 0 398 396"><defs><style>.a{fill:none;}.b{fill:#060079;}</style></defs><g transform="translate(568 -6045)"><rect class="a" width="398" height="396" transform="translate(-568 6045)"/><g transform="translate(-516.769 6109.288)"><g transform="translate(43.23)"><path class="b" d="M240.026,47.058a12.283,12.283,0,0,0-12.283,12.283v53.536a5.946,5.946,0,0,1-11.829,0V36.957a14.76,14.76,0,0,0-29.52.015s.04,75.86,0,75.878v.026a5.583,5.583,0,0,1-11.155,0V15.985a16,16,0,0,0-32,.016s-.016,96.08-.016,97.194a5.333,5.333,0,0,1-10.656-.317V29.972a16,16,0,1,0-32,0c-.148,115.929-.147,115.929-.158,125.528,0,3.623.07,11.408-1.676,12.711-1.45,1.082-3.382-.263-5.72-3.419-5.306-7.164-12.967-18.545-18.547-26.15-5.289-7.211-13.643-15.04-23.127-9.854-9.018,4.934-10.546,17.574-4.448,25.854,0,0,39.509,57.978,53.011,78.135,7.9,11.8,10.024,15.538,12.749,19.415,10.384,14.769,16.179,15.231,32.925,15.231h69.4c37.333,0,37.333-44.313,37.333-63.225V66.093C252.308,52.557,246.81,47.058,240.026,47.058Z" transform="translate(-43.23)"/></g></g></g></svg>