<svg xmlns="http://www.w3.org/2000/svg" xmlns:xlink="http://www.w3.org/1999/xlink" width="60" height="60" viewBox="0 0 60 60"><defs><clipPath id="a"><rect width="60" height="60" transform="translate(-2395 10895)" fill="none"/></clipPath></defs><g transform="translate(2395 -10895)"><g clip-path="url(#a)"><g transform="translate(-2396.041 10956.043)"><path d="M13.627-50.324a5.049,5.049,0,0,0-1.94,1.14,4.852,4.852,0,0,0-.9,1.77c0,.364-.121.376-.909.109a3.645,3.645,0,0,0-2.982.279,3.511,3.511,0,0,0-1.661,1.734l-.327.618-.036,4.861L4.837-34.94l-.57.085a3.98,3.98,0,0,0-2.934,2.182,2.956,2.956,0,0,0-.291,1.637,3.467,3.467,0,0,0,.885,2.558,4.647,4.647,0,0,0,2.34,1.261l.57.085.036,4.874L4.91-17.4l.412.764a3.834,3.834,0,0,0,4.558,1.867c.788-.267.909-.255.909.121a4.826,4.826,0,0,0,1.14,2,4.086,4.086,0,0,0,4.207.63,4.06,4.06,0,0,0,1.9-1.843l.327-.63.036-6.341.036-6.328H43.632l.036,6.328.036,6.341.3.606A4.267,4.267,0,0,0,45.887-12a3.056,3.056,0,0,0,1.637.3,2.909,2.909,0,0,0,1.794-.412,4.764,4.764,0,0,0,1.067-.776,4.762,4.762,0,0,0,.9-1.77c0-.364.121-.376.909-.109a3.631,3.631,0,0,0,2.91-.255,3.531,3.531,0,0,0,1.794-1.915c.255-.57.267-.715.3-5.383l.036-4.813.57-.085a4.731,4.731,0,0,0,2.049-.958,4.763,4.763,0,0,0,.776-1.067,2.755,2.755,0,0,0,.412-1.794,2.755,2.755,0,0,0-.412-1.794A3.749,3.749,0,0,0,57.8-34.855l-.57-.085L57.2-39.813l-.036-4.861-.412-.764a3.346,3.346,0,0,0-1.806-1.7,3.683,3.683,0,0,0-2.752-.17c-.788.267-.909.255-.909-.109a4.1,4.1,0,0,0-.837-1.7,4.773,4.773,0,0,0-1.127-.849,2.755,2.755,0,0,0-1.794-.412,3.056,3.056,0,0,0-1.637.3,4.267,4.267,0,0,0-1.879,1.879l-.3.606-.036,6.328-.036,6.341H18.44L18.4-41.256l-.036-6.328-.327-.63a4.063,4.063,0,0,0-1.891-1.831A4.587,4.587,0,0,0,13.627-50.324Zm1.988,2.158a3.11,3.11,0,0,1,.558.57c.255.327.255.364.255,16.561s0,16.233-.255,16.561a1.712,1.712,0,0,1-1.625.837,1.712,1.712,0,0,1-1.625-.837c-.255-.327-.255-.388-.291-16.233-.012-8.753,0-16.076.036-16.294a2.1,2.1,0,0,1,1.091-1.321A2.245,2.245,0,0,1,15.615-48.166Zm32.976,0a3.11,3.11,0,0,1,.558.57c.255.327.255.364.255,16.561s0,16.233-.255,16.561a1.712,1.712,0,0,1-1.625.837,1.712,1.712,0,0,1-1.625-.837c-.255-.327-.255-.388-.291-16.233-.012-8.753,0-16.076.036-16.294a2.1,2.1,0,0,1,1.091-1.321A2.245,2.245,0,0,1,48.59-48.166ZM9.8-45.257a3.11,3.11,0,0,1,.558.57c.255.327.255.388.255,13.651s0,13.324-.255,13.651a1.727,1.727,0,0,1-1.612.837A1.485,1.485,0,0,1,7.589-16.9c-.849-.643-.8.218-.8-14.124,0-8.886.036-13.081.133-13.311a2.057,2.057,0,0,1,1.018-1.079A2.249,2.249,0,0,1,9.8-45.257Zm44.614,0a3.11,3.11,0,0,1,.558.57c.255.327.255.388.255,13.651s0,13.324-.255,13.651a1.712,1.712,0,0,1-1.625.837,1.712,1.712,0,0,1-1.625-.837c-.255-.327-.255-.424-.291-13.324-.012-7.153,0-13.166.036-13.384a2.1,2.1,0,0,1,1.091-1.321A2.245,2.245,0,0,1,54.41-45.257ZM4.849-31.036c0,2.146.012,2.1-.764,1.77a1.95,1.95,0,0,1-.024-3.54C4.861-33.157,4.849-33.182,4.849-31.036Zm38.795,0v1.94H18.428v-3.879H43.644Zm14.657-1.6a1.713,1.713,0,0,1,.8,1.6,1.5,1.5,0,0,1-.255,1.043,1.973,1.973,0,0,1-1.224.849l-.4.073v-3.94l.4.085A1.891,1.891,0,0,1,58.3-32.636Z" fill="#2f0" stroke="#16a800" stroke-width="0.012"/></g></g></g></svg>