<svg xmlns="http://www.w3.org/2000/svg" xmlns:xlink="http://www.w3.org/1999/xlink" width="60" height="60" viewBox="0 0 60 60"><defs><clipPath id="a"><rect width="60" height="60" transform="translate(-2290 10894)" fill="none"/></clipPath></defs><g transform="translate(2290 -10894)"><g clip-path="url(#a)"><g transform="translate(-2290.036 10954.021)"><path d="M6.275-59.865A8.243,8.243,0,0,0,.047-52.816c-.059.739,2.428,36.876,2.6,37.92a9.3,9.3,0,0,0,1.161,2.815A7.542,7.542,0,0,0,7.19-9.149c1.548.727,1.126.7,12.691.7H30.437l.387.7a15.057,15.057,0,0,0,4.8,5.044A15.848,15.848,0,0,0,51.2-1.548c1.372-.669,1.818-1.056,1.818-1.56a.952.952,0,0,0-.8-.88,6.981,6.981,0,0,0-1.243.575,13.894,13.894,0,0,1-15-1.232,13.783,13.783,0,0,1-3.1-18.931,14.542,14.542,0,0,1,7.037-5.313,15.523,15.523,0,0,1,6.885-.563A14.176,14.176,0,0,1,57.754-11.741a14.761,14.761,0,0,1-2.111,4.234c-.868,1.149-.938,1.3-.739,1.712a.954.954,0,0,0,1.067.481c.563-.141,2.229-2.651,2.956-4.457a16.132,16.132,0,0,0-3.143-16.7,15.6,15.6,0,0,0-5.442-3.742c-.622-.246-1.149-.457-1.173-.469s.3-4.891.727-10.849c.821-11.729.821-11.647.258-13.2a8.219,8.219,0,0,0-4.985-4.9l-1.009-.364-18.532-.023C9.653-60.029,6.979-60.018,6.275-59.865ZM44.09-58.118a6.275,6.275,0,0,1,4.692,5.149c.082.54-.07,3.284-.633,11.248-.411,5.806-.762,10.568-.786,10.58a1.71,1.71,0,0,1-.563-.082,20.4,20.4,0,0,0-5.2.059A16.036,16.036,0,0,0,29.276-20.01a14.885,14.885,0,0,0-.61,3.671l-.082,1.208H14.556l-.317.27a.835.835,0,0,0-.059,1.278c.258.2.645.211,7.46.211h7.178l.152.727a13.175,13.175,0,0,0,.411,1.583l.27.856H19.6c-10.967,0-10.732.012-12.022-.68A8.311,8.311,0,0,1,5.02-13.442a7.63,7.63,0,0,1-.5-1.278c-.117-.446-.622-6.955-1.478-19.107C1.572-54.493,1.607-53.109,2.451-54.833A6.46,6.46,0,0,1,6.7-58.165c.281-.059,8.644-.106,18.579-.117C41-58.294,43.433-58.27,44.09-58.118Z" fill="#2f0"/><path d="M10.744-55.3A2.642,2.642,0,0,0,9.031-53.5c-.117.446.352,8.527.575,9.911a2.456,2.456,0,0,0,1.29,1.877l.575.3H25.288c13.207,0,13.852-.012,14.3-.223a2.562,2.562,0,0,0,1.278-1.325,96.491,96.491,0,0,0,.751-10.017,2.052,2.052,0,0,0-.375-1.325,3.415,3.415,0,0,0-.88-.809l-.54-.317-10.65-.035L18.532-55.49l-.293.293a.877.877,0,0,0-.059,1.243c.235.235.387.235,10.627.235,10.439,0,10.72.012,10.978.4.141.211.106,1.185-.2,5.571-.235,3.437-.328,4.187-.481,4.375-.188.2-.715.211-13.77.211-13.5,0-13.571,0-13.782-.235-.188-.211-.258-.821-.54-4.879a43.164,43.164,0,0,1-.223-4.926c.164-.422.563-.516,2.217-.516,1.7,0,1.888-.082,1.888-.856a.717.717,0,0,0-.3-.657c-.281-.223-.469-.246-1.853-.246A7.981,7.981,0,0,0,10.744-55.3Z" fill="#2f0"/><path d="M19.177-51.9l-.293.281v3.167c0,1.736.035,3.249.07,3.355a1,1,0,0,0,1.126.387c.446-.152.563-.411.563-1.208v-.669l.974.9a8.827,8.827,0,0,0,1.22,1.009.822.822,0,0,0,1.091-.821c0-.387-.106-.528-1.349-1.7l-1.349-1.29,1.314-1.243c1.208-1.161,1.3-1.278,1.22-1.6a.958.958,0,0,0-.9-.751c-.246,0-.563.211-1.243.821l-.915.821-.059-.657c-.047-.5-.129-.715-.34-.88A.768.768,0,0,0,19.177-51.9Z" fill="#2f0"/><path d="M27.106-51.948a3.682,3.682,0,0,0-2.475,3.5A3.646,3.646,0,0,0,27.716-44.7a3.355,3.355,0,0,0,4-3.484c.023-.938-.2-1.079-1.748-1.079-1.173,0-1.22.012-1.454.3-.516.669-.082,1.454.809,1.454.551,0,.61.176.188.622a1.877,1.877,0,0,1-2.874-.5,2.011,2.011,0,0,1,1.912-3,2.262,2.262,0,0,1,.844.246.883.883,0,0,0,1.278-1.185,3.491,3.491,0,0,0-2.111-.821A3.549,3.549,0,0,0,27.106-51.948Z" fill="#2f0"/><path d="M43.867-25.933a2.665,2.665,0,0,0-1.924,1.56c-.164.375-.188,1.185-.188,5.431,0,2.745-.012,4.985-.023,4.985s-.317-.106-.657-.235a2.369,2.369,0,0,0-2.088.047,2.638,2.638,0,0,0-1.009,4c.34.422,4.8,4.258,5.219,4.481a3.18,3.18,0,0,0,2.346-.023,52.2,52.2,0,0,0,5.442-4.762,2.542,2.542,0,0,0,.27-2.041,3.3,3.3,0,0,0-1.431-1.6,2.632,2.632,0,0,0-2.58.07c-.2.082-.211-.2-.211-4.821-.012-5.278-.023-5.4-.633-6.193A2.789,2.789,0,0,0,43.867-25.933Zm1.173,2.1c.223.281.235.493.235,6.193,0,3.237.035,5.982.07,6.087a1.129,1.129,0,0,0,1,.469,6.652,6.652,0,0,0,1.114-.833c.962-.809,1.243-.891,1.736-.5a.913.913,0,0,1,.106,1.255c-.34.387-4.293,3.788-4.574,3.918a.844.844,0,0,1-.54.047,40.91,40.91,0,0,1-4.914-4.234.8.8,0,0,1,.387-1.067c.493-.246.739-.164,1.63.61.927.8,1.208.927,1.619.727.61-.293.61-.3.61-6.6,0-5.044.023-5.911.176-6.123A.83.83,0,0,1,45.04-23.834Z" fill="#2f0"/></g></g></g></svg>